<?xml version="1.0" encoding="UTF-8" standalone="no"?>
<!-- Created with Inkscape (http://www.inkscape.org/) -->

<svg
   width="135.46667mm"
   height="135.46667mm"
   viewBox="0 0 135.46668 135.46667"
   version="1.1"
   id="svg8925"
   xml:space="preserve"
   inkscape:version="1.2.1 (9c6d41e, 2022-07-14)"
   sodipodi:docname="facewash.svg"
   xmlns:inkscape="http://www.inkscape.org/namespaces/inkscape"
   xmlns:sodipodi="http://sodipodi.sourceforge.net/DTD/sodipodi-0.dtd"
   xmlns="http://www.w3.org/2000/svg"
   xmlns:svg="http://www.w3.org/2000/svg"><sodipodi:namedview
     id="namedview8927"
     pagecolor="#505050"
     bordercolor="#ffffff"
     borderopacity="1"
     inkscape:showpageshadow="0"
     inkscape:pageopacity="0"
     inkscape:pagecheckerboard="1"
     inkscape:deskcolor="#505050"
     inkscape:document-units="mm"
     showgrid="false"
     inkscape:zoom="0.58853405"
     inkscape:cx="175.86068"
     inkscape:cy="215.7904"
     inkscape:window-width="1920"
     inkscape:window-height="948"
     inkscape:window-x="0"
     inkscape:window-y="25"
     inkscape:window-maximized="1"
     inkscape:current-layer="layer1" /><defs
     id="defs8922" /><g
     inkscape:label="Livello 1"
     inkscape:groupmode="layer"
     id="layer1"
     transform="translate(-59.758081,-162.53001)"><g
       id="g1833"
       transform="translate(-6.5219659,6.2010065)"><g
         id="g11459"
         transform="matrix(1.0048906,0,0,1.0048906,-171.82814,51.586053)"
         style="fill:#000000;fill-opacity:1"><path
           id="path11267"
           style="fill:#000000;fill-opacity:1;stroke-width:13.2292;stroke-linejoin:bevel;stroke-miterlimit:0"
           d="m 303.45951,156.45712 v 0.0232 l -8.46873,0.0677 c -7.90921,1.54548 -11.18226,8.45478 -11.18226,8.45478 -2.5455,3.81823 -1.9942,22.42602 -1.9942,22.42602 0,20.28293 16.16944,24.56288 22.564,24.56491 6.39457,0.002 23.62181,-4.28226 23.62181,-24.56491 0,0 0.55079,-18.60779 -1.99471,-22.42602 0,0 -3.27253,-6.9093 -11.18174,-8.45478 l -8.46925,-0.0677 v -0.0232 l -1.44746,0.0114 z m 7.70754,34.4289 a 2.25,2.25 0 0 1 0.87023,0.11783 2.25,2.25 0 0 1 1.3963,2.85925 c 0,0 -2.36571,6.2265 -8.85941,6.2265 -6.40736,0 -9.24026,-5.69888 -9.24026,-5.69888 a 2.25,2.25 0 0 1 1.0666,-2.99827 2.25,2.25 0 0 1 2.99775,1.06867 c 0,0 1.35848,3.12849 5.17591,3.12849 3.73111,0 4.60334,-3.18947 4.60334,-3.18947 a 2.25,2.25 0 0 1 1.98954,-1.51412 z" /><path
           id="path11323"
           style="fill:#000000;fill-opacity:1;stroke-width:14.0901;stroke-linejoin:bevel;stroke-miterlimit:0"
           d="m 304.48736,133.26628 a 34.324535,34.272846 0 0 0 -34.32452,34.27285 34.324535,34.272846 0 0 0 6.77943,20.44216 c -0.001,-0.0386 -0.65491,-21.85433 2.37867,-26.33534 0,0 3.9041,-8.11583 13.3382,-9.93118 l 10.10171,-0.0796 v -0.0269 l 1.72651,0.0134 1.72651,-0.0134 v 0.0269 l 10.10171,0.0796 c 9.4341,1.81535 13.33768,9.93118 13.33768,9.93118 3.03379,4.48132 2.38026,26.30018 2.37919,26.33586 a 34.324535,34.272846 0 0 0 6.77943,-20.44268 34.324535,34.272846 0 0 0 -34.32452,-34.27285 z" /><path
           id="path11328"
           style="fill:#000000;fill-opacity:1;stroke-width:14.0901;stroke-linejoin:bevel;stroke-miterlimit:0"
           d="m 304.48736,133.26628 a 34.324535,34.272846 0 0 0 -34.32452,34.27285 34.324535,34.272846 0 0 0 6.77943,20.44216 c -0.001,-0.0386 -0.65491,-21.85433 2.37867,-26.33534 0,0 3.9041,-8.11583 13.3382,-9.93118 l 10.10171,-0.0796 v -0.0269 l 1.72651,0.0134 1.72651,-0.0134 v 0.0269 l 10.10171,0.0796 c 9.4341,1.81535 13.33768,9.93118 13.33768,9.93118 3.03379,4.48132 2.38026,26.30018 2.37919,26.33586 a 34.324535,34.272846 0 0 0 6.77943,-20.44268 34.324535,34.272846 0 0 0 -34.32452,-34.27285 z" /><path
           id="path11382"
           style="fill:#000000;fill-opacity:1;stroke-width:25.71;stroke-linejoin:bevel;stroke-miterlimit:0"
           d="m 304.3716,122.72067 a 20.160496,25.381548 0 0 0 -14.70246,8.03879 20.160496,7.1337137 0 0 1 14.13299,-2.04897 20.160496,7.1337137 0 0 1 15.73961,2.67684 20.160496,25.381548 0 0 0 -15.17014,-8.66666 z" /></g><g
         id="g12272"
         transform="matrix(0.88797846,0,0,0.88797846,20.803742,19.593376)"><path
           style="fill:#000000;fill-opacity:1;stroke:none;stroke-width:4.50001;stroke-linecap:round;stroke-linejoin:bevel;stroke-miterlimit:0;stroke-dasharray:none;stroke-opacity:1;paint-order:markers fill stroke"
           d="m 76.445687,228.21103 c -1.37742,-0.0884 -2.756672,0.68723 -3.845587,1.53538 -1.038446,0.80885 -1.831801,1.97391 -2.317433,3.19734 -0.774179,1.95035 -1.329571,4.2109 -0.807089,6.24319 0.368706,1.43415 1.377277,2.78541 2.623805,3.58472 0.925844,0.59368 2.13355,0.62444 3.23281,0.66009 1.074955,0.0349 2.186319,-0.0702 3.196517,-0.43928 1.659673,-0.60642 3.205395,-1.61004 4.479805,-2.83403 1.284608,-1.23378 2.600871,-2.6697 3.036578,-4.39672 0.192811,-0.76425 0.08212,-1.64016 -0.259957,-2.35026 -0.450502,-0.93519 -1.400252,-1.54382 -2.207036,-2.19699 -0.956664,-0.77451 -2.21391,-1.58689 -3.092781,-2.01752 -1.244685,-0.60987 -2.87825,-0.91137 -4.039632,-0.98592 z"
           id="path12241"
           sodipodi:nodetypes="saaaaaaaaaass" /><path
           style="fill:#000000;fill-opacity:1;stroke:none;stroke-width:4.50001;stroke-linecap:round;stroke-linejoin:bevel;stroke-miterlimit:0;stroke-dasharray:none;stroke-opacity:1;paint-order:markers fill stroke"
           d="m 73.999466,224.6161 c -1.326415,-0.38174 -2.362902,-1.57741 -3.101613,-2.74335 -0.70447,-1.1119 -1.057995,-2.47638 -1.102156,-3.79193 -0.0704,-2.0972 0.169853,-4.41254 1.347669,-6.14919 0.831163,-1.22552 2.236656,-2.15703 3.679829,-2.48866 1.071901,-0.24632 2.219107,0.13239 3.265882,0.46989 1.023644,0.33 2.034303,0.80407 2.860627,1.49248 1.357566,1.13105 2.473794,2.59752 3.260249,4.17985 0.792749,1.59498 1.547063,3.39093 1.374242,5.16366 -0.07648,0.78448 -0.476336,1.57162 -1.038029,2.12457 -0.739735,0.72824 -1.839184,0.98056 -2.819094,1.32306 -1.161951,0.40613 -2.619625,0.74645 -3.592272,0.85514 -1.377493,0.15393 -3.016951,-0.11367 -4.135334,-0.43552 z"
           id="path12243"
           sodipodi:nodetypes="saaaaaaaaaass" /></g><g
         id="g12268"
         transform="matrix(0.88797846,0,0,0.88797846,20.803742,19.593376)"><path
           style="fill:#000000;fill-opacity:1;stroke:none;stroke-width:4.50001;stroke-linecap:round;stroke-linejoin:bevel;stroke-miterlimit:0;stroke-dasharray:none;stroke-opacity:1;paint-order:markers fill stroke"
           d="m 178.53704,228.58386 c 1.37742,-0.0884 2.75667,0.68723 3.84558,1.53538 1.03845,0.80885 1.83181,1.97391 2.31744,3.19734 0.77418,1.95035 1.32957,4.2109 0.80709,6.24319 -0.36871,1.43415 -1.37728,2.78541 -2.62381,3.58472 -0.92584,0.59368 -2.13355,0.62444 -3.23281,0.66009 -1.07495,0.0349 -2.18632,-0.0702 -3.19652,-0.43928 -1.65967,-0.60642 -3.20539,-1.61004 -4.4798,-2.83403 -1.28461,-1.23378 -2.60087,-2.6697 -3.03658,-4.39672 -0.19281,-0.76425 -0.0821,-1.64016 0.25996,-2.35026 0.4505,-0.93519 1.40025,-1.54382 2.20703,-2.19699 0.95667,-0.77451 2.21391,-1.58689 3.09279,-2.01752 1.24468,-0.60987 2.87825,-0.91137 4.03963,-0.98592 z"
           id="path12245"
           sodipodi:nodetypes="saaaaaaaaaass" /><path
           style="fill:#000000;fill-opacity:1;stroke:none;stroke-width:4.50001;stroke-linecap:round;stroke-linejoin:bevel;stroke-miterlimit:0;stroke-dasharray:none;stroke-opacity:1;paint-order:markers fill stroke"
           d="m 180.98326,224.98893 c 1.32641,-0.38174 2.3629,-1.57741 3.10161,-2.74335 0.70447,-1.1119 1.058,-2.47638 1.10216,-3.79193 0.0704,-2.0972 -0.16986,-4.41254 -1.34767,-6.14919 -0.83116,-1.22552 -2.23666,-2.15703 -3.67983,-2.48866 -1.0719,-0.24632 -2.21911,0.13239 -3.26588,0.46989 -1.02365,0.33 -2.03431,0.80407 -2.86063,1.49248 -1.35757,1.13105 -2.47379,2.59752 -3.26025,4.17985 -0.79275,1.59498 -1.54706,3.39093 -1.37424,5.16366 0.0765,0.78448 0.47634,1.57162 1.03803,2.12457 0.73973,0.72824 1.83918,0.98056 2.81909,1.32306 1.16195,0.40613 2.61963,0.74645 3.59227,0.85514 1.3775,0.15393 3.01696,-0.11367 4.13534,-0.43552 z"
           id="path12247"
           sodipodi:nodetypes="saaaaaaaaaass" /></g><path
         style="fill:#000000;fill-opacity:1;stroke:none;stroke-width:3.99586;stroke-linecap:round;stroke-linejoin:bevel;stroke-miterlimit:0;stroke-dasharray:none;stroke-opacity:1;paint-order:markers fill stroke"
         d="m 96.241857,237.48395 c 0,0 -5.419098,0.53668 -7.833565,5.63353 -2.41442,5.09732 -2.670761,7.90946 -1.985213,11.85774 0.550474,3.17032 2.378576,5.81888 5.580055,7.9944 0.946823,0.64375 3.00468,1.66358 3.00468,1.66358 -1.926557,2.85851 -3.218913,4.21124 -3.326595,4.93628 0,0 -0.643832,3.16564 1.609628,3.6483 h 13.896593 c 0,0 1.19403,-1.01327 1.60962,-1.66309 2,-3.12984 3.98135,-6.22365 4.01095,-10.39622 0,0 0.60322,-3.12467 -3.90389,-6.07571 0,0 -3.70192,-2.73648 -5.15073,-7.13606 0,0 -1.55585,-6.7069 -2.2534,-7.94085 0,0 -1.824248,-2.7365 -5.258133,-2.5219 z"
         id="path12249"
         sodipodi:nodetypes="cssscsccascccc" /><path
         style="fill:#000000;fill-opacity:1;stroke:none;stroke-width:3.99586;stroke-linecap:round;stroke-linejoin:bevel;stroke-miterlimit:0;stroke-dasharray:none;stroke-opacity:1;paint-order:markers fill stroke"
         d="m 171.75998,237.48395 c 0,0 5.41893,0.53668 7.8338,5.63353 2.41438,5.09732 2.67052,7.90946 1.98521,11.85774 -0.55085,3.17032 -2.37885,5.81888 -5.58047,7.9944 -0.94649,0.64375 -3.00461,1.66358 -3.00461,1.66358 1.92654,2.85851 3.21926,4.21124 3.32669,4.93628 0,0 0.64375,3.16564 -1.60958,3.6483 h -13.89649 c 0,0 -1.19403,-1.01327 -1.60958,-1.66309 -2,-3.12984 -3.98136,-6.22365 -4.01143,-10.39622 0,0 -0.60275,-3.12467 3.90389,-6.07571 0,0 3.70233,-2.73648 5.15085,-7.13606 0,0 1.55606,-6.7069 2.25383,-7.94085 0,0 1.82414,-2.7365 5.25789,-2.5219 z"
         id="path12255"
         sodipodi:nodetypes="cssscsccascccc" /><path
         id="path12257"
         style="fill:#000000;fill-opacity:1;stroke:none;stroke-width:3.99586;stroke-linecap:round;stroke-linejoin:bevel;stroke-miterlimit:0;stroke-dasharray:none;stroke-opacity:1;paint-order:markers fill stroke"
         d="m 118.10612,263.32586 c 0.10132,2.40507 -3.70863,5.40255 -3.70863,5.40255 -0.60494,0.48366 -0.68571,0.64501 -0.64524,2.4187 0.0405,1.77374 2.78162,1.77349 2.78162,1.77349 h 16.94493 0.51058 16.94492 c 0,0 2.74164,2.5e-4 2.78162,-1.77349 0.0405,-1.77369 -0.0407,-1.93504 -0.64507,-2.4187 0,0 -3.81012,-2.99748 -3.70859,-5.40255 0,0 -8.27303,4.53053 -15.62819,4.86807 -7.35522,-0.33759 -15.62795,-4.86807 -15.62795,-4.86807 z" /></g></g></svg>
