<?xml version="1.0" encoding="UTF-8" standalone="no"?>
<!-- Created with Inkscape (http://www.inkscape.org/) -->

<svg
   width="135.46666mm"
   height="135.46666mm"
   viewBox="0 0 135.46666 135.46666"
   version="1.1"
   id="svg2754"
   xml:space="preserve"
   inkscape:version="1.2.1 (9c6d41e, 2022-07-14)"
   sodipodi:docname="housework.svg"
   xmlns:inkscape="http://www.inkscape.org/namespaces/inkscape"
   xmlns:sodipodi="http://sodipodi.sourceforge.net/DTD/sodipodi-0.dtd"
   xmlns="http://www.w3.org/2000/svg"
   xmlns:svg="http://www.w3.org/2000/svg"><sodipodi:namedview
     id="namedview2756"
     pagecolor="#505050"
     bordercolor="#ffffff"
     borderopacity="1"
     inkscape:showpageshadow="0"
     inkscape:pageopacity="0"
     inkscape:pagecheckerboard="1"
     inkscape:deskcolor="#505050"
     inkscape:document-units="mm"
     showgrid="false"
     inkscape:zoom="0.56151973"
     inkscape:cx="-98.838913"
     inkscape:cy="194.11606"
     inkscape:window-width="1920"
     inkscape:window-height="948"
     inkscape:window-x="0"
     inkscape:window-y="25"
     inkscape:window-maximized="1"
     inkscape:current-layer="layer1" /><defs
     id="defs2751" /><g
     inkscape:label="Livello 1"
     inkscape:groupmode="layer"
     id="layer1"
     transform="translate(-46.898251,-74.067421)"><g
       id="g2340"
       transform="matrix(0.84665537,0,0,0.84665537,16.022869,20.777214)"><g
         id="g4551"
         transform="rotate(30,120.89501,196.13407)"
         style="fill:#a95600;fill-opacity:1"><path
           id="rect3677"
           style="opacity:1;fill:#000000;fill-opacity:1;stroke-width:13.2292;stroke-linejoin:bevel;stroke-miterlimit:0"
           d="m 91.981804,82.335133 c -3.15234,0 -5.690092,2.537752 -5.690092,5.690092 v 58.555085 c 0,0.3149 0.0262,0.62325 0.07493,0.92397 h 11.230322 c 0.04873,-0.30072 0.07493,-0.60907 0.07493,-0.92397 V 88.025225 c 0,-3.15234 -2.537752,-5.690092 -5.690092,-5.690092 z" /><path
           id="rect4097"
           style="opacity:1;fill:#000000;fill-opacity:1;stroke-width:13.289;stroke-linejoin:bevel;stroke-miterlimit:0"
           d="m 82.982353,153.21091 c -2.765604,0 -4.991943,2.22686 -4.991943,4.99246 0,0.15019 0.0078,0.2982 0.02067,0.44493 h 28.13317 c 0.0129,-0.14673 0.0207,-0.29474 0.0207,-0.44493 0,-2.7656 -2.22634,-4.99246 -4.99195,-4.99246 z" /><rect
           style="opacity:1;fill:#000000;fill-opacity:1;stroke-width:13.2292;stroke-linejoin:bevel;stroke-miterlimit:0"
           id="rect4156"
           width="62.985607"
           height="11.27111"
           x="60.442524"
           y="164.42572"
           ry="5.6355548" /><path
           id="rect4158"
           style="opacity:1;fill:#000000;fill-opacity:1;stroke-width:14.2307;stroke-linejoin:bevel;stroke-miterlimit:0"
           d="m 125.04077,179.63875 c -0.79684,1.00332 -2.02562,1.64642 -3.4122,1.64642 h -5.20536 l 3.53828,19.7006 h 5.6994 c 3.32811,0 6.00738,-2.67927 6.00738,-6.00738 l -6.62388,-15.33964 z m -66.059019,0.0744 -5.17e-4,5.2e-4 -6.684346,15.2647 c 0,3.32811 2.679747,6.00738 6.007902,6.00738 h 5.425509 l 4.048331,-19.7006 h -5.442045 c -1.352685,0 -2.556926,-0.61063 -3.354834,-1.572 z m 14.016199,1.572 -4.048849,19.7006 h 8.197433 l 1.085205,-19.7006 z m 10.506852,0 -1.085205,19.7006 h 6.867798 l -0.294556,-19.7006 z m 11.012765,0 0.294555,19.7006 h 7.218168 l -1.50947,-19.7006 z m 11.391033,0 1.50947,19.7006 h 7.08587 l -3.5388,-19.7006 z" /></g><g
         id="g4559"
         transform="translate(45.987603,-1.2845699)"
         style="opacity:1;fill:#000000;fill-opacity:1"><rect
           style="opacity:1;fill:#000000;fill-opacity:1;stroke-width:13.2292;stroke-linejoin:bevel;stroke-miterlimit:0"
           id="rect4553"
           width="5.4934888"
           height="16.663582"
           x="61.120285"
           y="91.158272"
           ry="2.7467444" /><rect
           style="opacity:1;fill:#000000;fill-opacity:1;stroke-width:13.2292;stroke-linejoin:bevel;stroke-miterlimit:0"
           id="rect4555"
           width="5.4934888"
           height="16.663582"
           x="96.743317"
           y="-72.198822"
           ry="2.7467444"
           transform="rotate(90)" /></g><path
         id="rect4567"
         style="opacity:1;fill:#000000;fill-opacity:1;stroke-width:13.7879;stroke-linejoin:bevel;stroke-miterlimit:0"
         d="m 71.742178,115.18027 c -1.171711,0 -2.173894,0.69708 -2.617897,1.70069 l -4.18e-4,-0.002 c -6.45e-4,0.002 -0.0015,0.004 -0.0021,0.006 -0.06851,0.15573 -0.123222,0.31907 -0.163383,0.48806 -1.081774,2.81437 -3.965498,3.77954 -3.965498,3.77954 l 0.0013,4.2e-4 c -1.12809,0.38365 -1.935531,1.44832 -1.935531,2.70941 0,0.92558 0.435363,1.7451 1.112764,2.26773 -6.8e-5,3e-4 -3.51e-4,5.4e-4 -4.18e-4,8e-4 0.0053,0.004 0.01063,0.007 0.01588,0.0112 0.158393,0.12049 0.329413,0.22519 0.511461,0.3109 1.299338,0.6671 2.843038,0.76566 4.392553,4.31525 l 4.18e-4,-8.1e-4 c 0.425747,1.04516 1.449188,1.77841 2.650908,1.77841 1.302766,0 2.39613,-0.86163 2.745346,-2.04835 l 4.18e-4,8e-4 c 0,0 1.428005,-2.98076 4.014388,-3.92956 l -0.0017,-4.2e-4 c 1.122631,-0.38666 1.925085,-1.44886 1.925085,-2.70607 0,-1.0083 -0.516462,-1.8909 -1.299964,-2.40061 l 8.09e-4,-4.2e-4 c 0,0 -0.0076,-0.004 -0.0088,-0.005 -0.08528,-0.0551 -0.173676,-0.10534 -0.264924,-0.15126 -0.868643,-0.50766 -3.608075,-2.22527 -4.377927,-4.12178 -0.02456,-0.0788 -0.05299,-0.15584 -0.08399,-0.2315 -9.7e-4,-0.003 -0.0019,-0.006 -0.0029,-0.009 v 0.002 c -0.428968,-1.03813 -1.449237,-1.76504 -2.645894,-1.76504 z" /><g
         id="g4588"
         transform="translate(95.058172,86.580012)"
         style="opacity:1;fill:#000000;fill-opacity:1"><rect
           style="opacity:1;fill:#000000;fill-opacity:1;stroke-width:13.2292;stroke-linejoin:bevel;stroke-miterlimit:0"
           id="rect4584"
           width="5.4934888"
           height="16.663582"
           x="61.120285"
           y="91.158272"
           ry="2.7467444" /><rect
           style="opacity:1;fill:#000000;fill-opacity:1;stroke-width:13.2292;stroke-linejoin:bevel;stroke-miterlimit:0"
           id="rect4586"
           width="5.4934888"
           height="16.663582"
           x="96.743317"
           y="-72.198822"
           ry="2.7467444"
           transform="rotate(90)" /></g><path
         id="path4590"
         style="opacity:1;fill:#000000;fill-opacity:1;stroke-width:13.7878;stroke-linejoin:bevel;stroke-miterlimit:0"
         d="m 153.18392,136.22046 c -1.1717,0 -2.17389,0.69708 -2.61788,1.70069 l -4.2e-4,-0.002 c -6.4e-4,0.002 -0.002,0.004 -0.002,0.006 -0.0685,0.15573 -0.12322,0.31907 -0.16338,0.48806 -1.08177,2.81435 -3.96547,3.77952 -3.96547,3.77952 l 0.002,4.2e-4 c -1.12809,0.38364 -1.93553,1.44831 -1.93553,2.70939 0,0.92557 0.43536,1.74509 1.11276,2.26771 -7e-5,3.1e-4 -3.5e-4,5.4e-4 -4.2e-4,8.1e-4 0.005,0.004 0.0106,0.007 0.0159,0.0112 0.1584,0.12048 0.32941,0.22519 0.51146,0.31089 1.29933,0.6671 2.84302,0.76566 4.39253,4.31523 l 4.1e-4,-8.1e-4 c 0.42575,1.04516 1.44918,1.7784 2.6509,1.7784 1.30275,0 2.39611,-0.86163 2.74533,-2.04834 l 4.2e-4,8e-4 c 0,0 1.42799,-2.98074 4.01436,-3.92954 l -0.002,-4.1e-4 c 1.12263,-0.38666 1.92507,-1.44886 1.92507,-2.70606 0,-1.00829 -0.51646,-1.89089 -1.29995,-2.40059 l 8e-4,-4.2e-4 c 0,0 -0.007,-0.004 -0.009,-0.005 -0.0853,-0.0551 -0.17367,-0.10535 -0.26492,-0.15127 -0.86864,-0.50765 -3.60805,-2.22525 -4.3779,-4.12175 -0.0246,-0.0788 -0.053,-0.15584 -0.084,-0.2315 -8.1e-4,-0.003 -0.002,-0.006 -0.003,-0.009 v 0.002 c -0.42896,-1.03812 -1.44923,-1.76503 -2.64587,-1.76503 z" /><circle
         style="opacity:1;fill:#000000;fill-opacity:1;stroke-width:13.2292;stroke-linejoin:bevel;stroke-miterlimit:0"
         id="path4644"
         cx="71.561996"
         cy="86.913124"
         r="3.5967958" /><circle
         style="opacity:1;fill:#000000;fill-opacity:1;stroke-width:13.2292;stroke-linejoin:bevel;stroke-miterlimit:0"
         id="circle4646"
         cx="168.08511"
         cy="107.95932"
         r="3.5967958" /></g></g></svg>
