<?xml version="1.0" encoding="UTF-8" standalone="no"?>
<!-- Created with Inkscape (http://www.inkscape.org/) -->

<svg
   width="135.46666mm"
   height="135.46666mm"
   viewBox="0 0 135.46666 135.46666"
   version="1.1"
   id="svg5"
   xml:space="preserve"
   inkscape:version="1.2.1 (9c6d41e, 2022-07-14)"
   sodipodi:docname="keyboard.svg"
   xmlns:inkscape="http://www.inkscape.org/namespaces/inkscape"
   xmlns:sodipodi="http://sodipodi.sourceforge.net/DTD/sodipodi-0.dtd"
   xmlns="http://www.w3.org/2000/svg"
   xmlns:svg="http://www.w3.org/2000/svg"><sodipodi:namedview
     id="namedview7"
     pagecolor="#505050"
     bordercolor="#ffffff"
     borderopacity="1"
     inkscape:showpageshadow="0"
     inkscape:pageopacity="0"
     inkscape:pagecheckerboard="1"
     inkscape:deskcolor="#505050"
     inkscape:document-units="mm"
     showgrid="false"
     inkscape:zoom="0.35361115"
     inkscape:cx="-148.46817"
     inkscape:cy="342.18378"
     inkscape:window-width="1920"
     inkscape:window-height="948"
     inkscape:window-x="0"
     inkscape:window-y="25"
     inkscape:window-maximized="1"
     inkscape:current-layer="layer1" /><defs
     id="defs2" /><g
     inkscape:label="Livello 1"
     inkscape:groupmode="layer"
     id="layer1"
     transform="translate(152.64395,-73.116997)"><path
       id="rect1577"
       style="opacity:1;fill:#000000;fill-opacity:1;stroke-width:9.93651;stroke-linejoin:bevel;stroke-miterlimit:0"
       d="m -130.93878,107.89955 c -3.36406,0 -6.07232,2.70837 -6.07232,6.07247 v 53.75618 c 0,3.3641 2.70826,6.0729 6.07232,6.0729 h 92.056105 c 3.36384,0 6.072533,-2.7088 6.072533,-6.0729 v -53.75618 c 0,-3.3641 -2.708693,-6.07247 -6.072533,-6.07247 z m 8.41749,10.67428 h 5.34443 c 1.03253,0 1.86026,0.82965 1.86026,1.86048 v 5.3443 c 0,1.03019 -0.82986,1.86005 -1.86026,1.86005 h -5.34443 c -1.03253,0 -1.86027,-0.82922 -1.86027,-1.86005 v -5.3443 c 0,-1.0304 0.82987,-1.86048 1.86027,-1.86048 z m 13.79499,0 h 5.34421 c 1.03253,0 1.86027,0.82965 1.86027,1.86048 v 5.3443 c 0,1.03019 -0.82987,1.86005 -1.86027,1.86005 h -5.34421 c -1.03254,0 -1.8624,-0.82922 -1.8624,-1.86005 v -5.3443 c 0,-1.0304 0.82986,-1.86048 1.8624,-1.86048 z m 13.116371,0 h 5.344213 c 1.032533,0 1.860267,0.82965 1.860267,1.86048 v 5.3443 c 0,1.03019 -0.829867,1.86005 -1.860267,1.86005 h -5.344213 c -1.032534,0 -1.8624,-0.82922 -1.8624,-1.86005 v -5.3443 c 0,-1.0304 0.829866,-1.86048 1.8624,-1.86048 z m 13.51296,0 h 5.344427 c 1.032533,0 1.860266,0.82965 1.860266,1.86048 v 5.3443 c 0,1.03019 -0.829866,1.86005 -1.860266,1.86005 h -5.344427 c -1.0304,0 -1.860267,-0.82922 -1.860267,-1.86005 v -5.3443 c 0,-1.0304 0.829867,-1.86048 1.860267,-1.86048 z m 13.513813,0 h 5.344427 c 1.032534,0 1.860267,0.82965 1.860267,1.86048 v 5.3443 c 0,1.03019 -0.829867,1.86005 -1.860267,1.86005 h -5.344427 c -1.0304,0 -1.8624,-0.82922 -1.8624,-1.86005 v -5.3443 c 0,-1.0304 0.829867,-1.86048 1.8624,-1.86048 z m 13.513814,0 h 5.344427 c 1.032533,0 1.860266,0.82965 1.860266,1.86048 v 5.3443 c 0,1.03019 -0.829866,1.86005 -1.860266,1.86005 h -5.344427 c -1.0304,0 -1.8624,-0.82922 -1.8624,-1.86005 v -5.3443 c 0,-1.0304 0.829867,-1.86048 1.8624,-1.86048 z m -59.503148,17.88568 h 5.34443 c 1.03253,0 1.86026,0.82965 1.86026,1.86069 v 5.34434 c 0,1.03019 -0.82986,1.86005 -1.86026,1.86005 h -5.34443 c -1.03253,0 -1.86027,-0.82944 -1.86027,-1.86005 v -5.34445 c 0,-1.0304 0.82987,-1.86048 1.86027,-1.86048 z m 13.79563,0 h 5.344211 c 1.032533,0 1.860266,0.82965 1.860266,1.86069 v 5.34434 c 0,1.03019 -0.829866,1.86005 -1.860266,1.86005 h -5.344211 c -1.03254,0 -1.8624,-0.82944 -1.8624,-1.86005 v -5.34445 c 0,-1.0304 0.82986,-1.86048 1.8624,-1.86048 z m 13.115517,0 h 5.344427 c 1.032534,0 1.860267,0.82965 1.860267,1.86069 v 5.34434 c 0,1.03019 -0.829867,1.86005 -1.860267,1.86005 h -5.344427 c -1.032533,0 -1.860266,-0.82944 -1.860266,-1.86005 v -5.34445 c 0,-1.0304 0.829866,-1.86048 1.860266,-1.86048 z m 13.513814,0 h 5.344427 c 1.032533,0 1.860266,0.82965 1.860266,1.86069 v 5.34434 c 0,1.03019 -0.829866,1.86005 -1.860266,1.86005 h -5.344427 c -1.032533,0 -1.860267,-0.82944 -1.860267,-1.86005 v -5.34445 c 0,-1.0304 0.829867,-1.86048 1.860267,-1.86048 z m 13.513814,0 h 5.344213 c 1.032533,0 1.860267,0.82965 1.860267,1.86069 v 5.34434 c 0,1.03019 -0.829867,1.86005 -1.860267,1.86005 h -5.344213 c -1.032534,0 -1.862401,-0.82944 -1.862401,-1.86005 v -5.34445 c 0,-1.0304 0.829867,-1.86048 1.862401,-1.86048 z m -61.887575,17.48808 h 5.34443 c 1.03253,0 1.86026,0.82965 1.86026,1.8607 v 5.34436 c 0,1.0304 -0.82986,1.86005 -1.86026,1.86005 h -5.34443 c -1.03253,0 -1.86027,-0.82923 -1.86027,-1.86005 v -5.34436 c 0,-1.03019 0.82987,-1.8607 1.86027,-1.8607 z m 17.01909,0 h 41.158191 c 0.770133,0 1.393067,0.62059 1.393067,1.392 v 6.28162 c 0,0.77078 -0.618667,1.39179 -1.393067,1.39179 H -105.5022 c -0.77013,0 -1.39306,-0.62037 -1.39306,-1.39179 v -6.28162 c 0,-0.77077 0.61866,-1.392 1.39306,-1.392 z m 52.933765,0 h 5.344213 c 1.032533,0 1.860267,0.82965 1.860267,1.8607 v 5.34436 c 0,1.0304 -0.829867,1.86005 -1.860267,1.86005 h -5.344213 c -1.032534,0 -1.8624,-0.82923 -1.8624,-1.86005 v -5.34436 c 0,-1.03019 0.829866,-1.8607 1.8624,-1.8607 z" /></g></svg>
