<?xml version="1.0" encoding="UTF-8" standalone="no"?>
<!-- Created with Inkscape (http://www.inkscape.org/) -->

<svg
   width="511.99997"
   height="511.99997"
   viewBox="0 0 135.46666 135.46666"
   version="1.1"
   id="svg240"
   xml:space="preserve"
   inkscape:version="1.2.1 (9c6d41e, 2022-07-14)"
   sodipodi:docname="rub.svg"
   xmlns:inkscape="http://www.inkscape.org/namespaces/inkscape"
   xmlns:sodipodi="http://sodipodi.sourceforge.net/DTD/sodipodi-0.dtd"
   xmlns="http://www.w3.org/2000/svg"
   xmlns:svg="http://www.w3.org/2000/svg"><sodipodi:namedview
     id="namedview242"
     pagecolor="#505050"
     bordercolor="#ffffff"
     borderopacity="1"
     inkscape:showpageshadow="0"
     inkscape:pageopacity="0"
     inkscape:pagecheckerboard="1"
     inkscape:deskcolor="#505050"
     inkscape:document-units="mm"
     showgrid="false"
     inkscape:zoom="0.6866667"
     inkscape:cx="159.46601"
     inkscape:cy="330.58251"
     inkscape:window-width="1920"
     inkscape:window-height="948"
     inkscape:window-x="0"
     inkscape:window-y="25"
     inkscape:window-maximized="0"
     inkscape:current-layer="layer1" /><defs
     id="defs237" /><g
     inkscape:label="Livello 1"
     inkscape:groupmode="layer"
     id="layer1"
     transform="translate(143.83061,-6.8663383)"><g
       id="g3941"
       transform="matrix(0.66093206,0,0,0.66093206,-136.74184,16.987846)"><path
         id="rect1148"
         style="display:inline;fill:#000000;fill-opacity:1;stroke-width:14.1515;stroke-linejoin:bevel;stroke-miterlimit:0"
         d="m 30.274638,12.706718 c -2.693338,0 -4.861719,2.167864 -4.861719,4.861202 v 5.41414 c 0,2.693338 2.168381,4.861718 4.861719,4.861718 h 11.640633 v 7.764384 c -3.224574,0.390949 -5.74049,3.017626 -5.961393,6.293156 h -0.01602 v 0.469222 1.280542 6.812504 c -8.54909,7.828007 -16.238285,12.194198 -16.238285,28.502137 v 73.598607 c 0,4.82751 6.71843,9.06405 9.009269,9.06405 h 19.565731 0.780831 19.56573 c 2.290839,0 9.00927,-4.41085 9.00927,-9.06405 V 139.84981 L 45.601868,106.83327 c -3.185945,-3.18594 -3.185948,-8.315674 0,-11.501621 3.013977,-3.013978 7.766548,-3.174878 10.968322,-0.486275 0.326432,-1.452216 1.054817,-2.834036 2.189531,-3.96875 3.185948,-3.185948 8.315679,-3.185945 11.501623,0 l 0.370004,0.370003 c 0.311227,-1.500071 1.049665,-2.930688 2.218469,-4.099492 1.344734,-1.344733 3.035656,-2.119489 4.780587,-2.329056 v -5.852356 c 0,-16.307939 -7.688676,-20.67413 -16.237769,-28.502137 h -0.01602 v -6.344832 c 0.01039,-0.154595 0.01602,-0.310354 0.01602,-0.467672 V 42.37054 c 0,-3.606067 -2.773738,-6.540079 -6.312793,-6.794417 v -7.732345 h 18.841744 0.163298 c 0.038,0 0.07538,-0.0017 0.113171,-0.0026 l 2.069641,-0.02119 -0.02635,4.173906 c -0.0031,0.07104 -0.0052,0.142121 -0.0052,0.21394 v 0.611332 0.611333 c 0,2.693338 2.16838,4.861718 4.861718,4.861718 h 5.536613 c 2.524109,0 4.587119,-1.90478 4.836398,-4.360974 0.01671,-0.164677 0.02532,-0.331515 0.02532,-0.500744 v -1.222665 c 0,-0.09744 -0.0032,-0.193916 -0.0088,-0.289905 C 91.61278,24.00644 92.350838,22.14587 89.430673,18.225742 86.732193,14.603214 84.137268,12.706699 77.054167,12.706699 H 74.08484 72.999118 Z"
         sodipodi:nodetypes="sssscccccccsssccssccscsscscscccsscccscccscsssssscssccs" /><path
         id="path2705"
         style="display:inline;fill:#000000;fill-opacity:1;stroke-width:13.2292;stroke-linejoin:bevel;stroke-miterlimit:0"
         d="m 78.578149,88.964596 c -0.833173,-0.01203 -1.795395,0.273524 -2.740918,1.219047 -2.521394,2.521395 -0.527616,5.180045 -0.527616,5.180045 l 11.043254,11.043252 c 3.158507,-2.96305 8.893514,-2.32595 8.893514,-2.32595 L 80.99764,89.832243 c 0,0 -1.030868,-0.847605 -2.419491,-0.867647 z m -14.140222,3.759977 c -0.750854,0.02612 -1.533539,0.305191 -2.258777,1.030428 -2.578621,2.578623 -0.19482,5.44928 -0.19482,5.44928 l 20.580139,20.677289 2.043803,0.0977 c -3.45438,-3.84361 -0.997355,-10.19318 -0.997355,-10.19318 L 68.06613,94.241276 c 0,0 -1.709353,-1.583466 -3.628203,-1.516703 z m -12.658659,4.046264 c -1.005163,-0.0092 -2.150411,0.36344 -3.306775,1.519804 -3.363967,3.363969 1.439706,7.478609 1.439706,7.478609 0,0 21.586667,22.06778 27.53527,28.01638 5.9486,5.94861 9.258866,5.06378 9.258866,5.06378 h 44.644825 l 11.88788,11.88788 c 5.81855,5.81855 10.27704,1.88204 12.45265,-1.88623 l 2.77874,-4.68828 3.6152,-5.85533 c 3.52442,-6.10447 1.39274,-7.83999 -4.02111,-13.25384 l -15.43963,-15.43963 c -3.18876,-12.573861 -15.50913,-11.269595 -15.50913,-11.269595 0,0 -7.16113,0.905369 -9.96477,5.761405 -2.80363,4.85605 -4.6023,4.3124 -4.6023,4.3124 H 91.749438 c 0,0 -4.964554,0.7609 -4.964554,5.43533 0,4.67443 4.819344,5.94227 4.819344,5.94227 l 23.843502,0.002 c 0,0 1.75855,0.58616 1.75855,2.06705 0,1.48089 -1.45417,2.28927 -1.45417,2.28927 H 81.063786 l -7.212997,-7.213 -18.744075,-18.74459 c 0,0 -1.408497,-1.408276 -3.327446,-1.425753 z"
         sodipodi:nodetypes="ssccccssscccccscscscccccccccsccsccscccccc" /><path
         style="display:inline;fill:#000000;fill-opacity:1;stroke-width:25.4445;stroke-linejoin:bevel;stroke-miterlimit:0"
         d="m 100.00363,50.802744 c -3.275177,4.198218 -9.948757,13.521215 -9.948757,19.785486 0,5.963185 4.39478,12.644641 11.333907,12.644641 6.93914,0 12.87596,-4.471885 12.87596,-12.027829 0,-5.818293 -7.40616,-16.071135 -10.81254,-20.479131 -0.96508,-1.134521 -2.66268,-1.048744 -3.44857,0.07684 z"
         id="path3064"
         sodipodi:nodetypes="csssccc" /></g></g></svg>
