<?xml version="1.0" encoding="UTF-8" standalone="no"?>
<!-- Created with Inkscape (http://www.inkscape.org/) -->

<svg
   width="135.46666mm"
   height="135.46666mm"
   viewBox="0 0 135.46666 135.46666"
   version="1.1"
   id="svg4686"
   xml:space="preserve"
   inkscape:version="1.2.1 (9c6d41e, 2022-07-14)"
   sodipodi:docname="teethbrush.svg"
   xmlns:inkscape="http://www.inkscape.org/namespaces/inkscape"
   xmlns:sodipodi="http://sodipodi.sourceforge.net/DTD/sodipodi-0.dtd"
   xmlns="http://www.w3.org/2000/svg"
   xmlns:svg="http://www.w3.org/2000/svg"><sodipodi:namedview
     id="namedview4688"
     pagecolor="#505050"
     bordercolor="#ffffff"
     borderopacity="1"
     inkscape:showpageshadow="0"
     inkscape:pageopacity="0"
     inkscape:pagecheckerboard="1"
     inkscape:deskcolor="#505050"
     inkscape:document-units="mm"
     showgrid="false"
     inkscape:zoom="0.5465328"
     inkscape:cx="-37.509185"
     inkscape:cy="440.96164"
     inkscape:window-width="1920"
     inkscape:window-height="948"
     inkscape:window-x="0"
     inkscape:window-y="25"
     inkscape:window-maximized="0"
     inkscape:current-layer="layer1" /><defs
     id="defs4683" /><g
     inkscape:label="Livello 1"
     inkscape:groupmode="layer"
     id="layer1"
     transform="translate(-37.543743,-80.835632)"><g
       id="g2315"><rect
         style="fill:#000000;fill-opacity:1;stroke:none;stroke-width:29.2186;stroke-linejoin:bevel;stroke-miterlimit:0"
         id="rect4819"
         width="94.569183"
         height="8.141717"
         x="55.919067"
         y="93.334328"
         ry="4.0708585" /><path
         id="rect5184"
         style="fill:#000000;fill-opacity:1;stroke:none;stroke-width:14.8386;stroke-linejoin:bevel;stroke-miterlimit:0"
         d="m 63.81361,93.89262 v 14.40482 c 0,4.14909 3.170197,7.53001 7.230358,7.86361 v -9.22984 c 0,-0.85342 0.687178,-1.5406 1.540602,-1.5406 0.853423,0 1.540601,0.68718 1.540601,1.5406 v 9.25738 h 5.03522 v -9.25738 c 0,-0.85342 0.687179,-1.5406 1.540601,-1.5406 0.853423,0 1.540602,0.68718 1.540602,1.5406 v 9.25738 h 5.462399 v -9.25738 c 0,-0.85342 0.68718,-1.5406 1.540602,-1.5406 0.853421,0 1.540602,0.68718 1.540602,1.5406 v 9.2044 c 3.93593,-0.45227 6.973382,-3.77721 6.973382,-7.83817 V 93.89262 Z" /><path
         id="path7436"
         style="fill:#000000;fill-opacity:1;stroke:none;stroke-width:10.6795;stroke-linejoin:bevel;stroke-miterlimit:0"
         d="m 86.382405,128.25518 c -2.243211,-0.0123 -4.491441,0.25051 -6.627967,0.8481 -3.315028,0.92722 -6.514471,2.61707 -9.089259,4.90172 -2.954997,2.62201 -5.501424,6.929 -6.826539,9.68831 -2.157918,4.4935 -2.184304,10.08005 -0.994946,14.92085 1.810946,7.37075 8.216037,12.77863 11.870518,19.43086 3.236853,5.89203 7.617296,13.36789 8.886516,18.10468 1.269219,4.73679 3.846323,7.09561 8.223217,7.09561 4.376892,0 7.825657,-3.64745 7.825657,-8.62119 0,-4.78144 2.848868,-6.14854 5.627178,-6.14864 2.77849,-1.1e-4 5.62802,1.36621 5.62802,6.14864 0,4.97374 3.44835,8.62119 7.82523,8.62119 4.37691,0 6.954,-2.35882 8.22322,-7.09561 1.26922,-4.73679 5.64966,-12.21265 8.88652,-18.10468 3.65448,-6.65223 10.05957,-12.06011 11.87052,-19.43086 1.18935,-4.8408 1.1634,-10.42735 -0.99453,-14.92085 -1.32512,-2.75931 -3.87155,-7.0663 -6.82654,-9.68831 -2.57479,-2.28465 -5.77464,-3.9745 -9.08968,-4.90172 -3.41844,-0.95615 -7.12251,-1.05508 -10.63486,-0.54191 -2.82309,0.41248 -5.34738,1.33775 -8.06637,2.86303 -2.69599,1.51239 -3.76476,2.89276 -6.82111,2.91601 -3.05664,-0.0232 -4.12542,-1.40356 -6.821533,-2.91601 -2.71898,-1.52528 -5.242857,-2.45055 -8.065945,-2.86303 -1.317132,-0.19243 -2.661391,-0.29884 -4.007317,-0.30619 z"
         sodipodi:nodetypes="sssssssssasssssssssscsss" /></g></g></svg>
