<?xml version="1.0" encoding="UTF-8" standalone="no"?>
<!-- Created with Inkscape (http://www.inkscape.org/) -->

<svg
   width="135.46666mm"
   height="135.46666mm"
   viewBox="0 0 135.46666 135.46666"
   version="1.1"
   id="svg5"
   xml:space="preserve"
   inkscape:version="1.2.1 (9c6d41e, 2022-07-14)"
   sodipodi:docname="wash.svg"
   xmlns:inkscape="http://www.inkscape.org/namespaces/inkscape"
   xmlns:sodipodi="http://sodipodi.sourceforge.net/DTD/sodipodi-0.dtd"
   xmlns="http://www.w3.org/2000/svg"
   xmlns:svg="http://www.w3.org/2000/svg"><sodipodi:namedview
     id="namedview7"
     pagecolor="#505050"
     bordercolor="#ffffff"
     borderopacity="1"
     inkscape:showpageshadow="0"
     inkscape:pageopacity="0"
     inkscape:pagecheckerboard="1"
     inkscape:deskcolor="#505050"
     inkscape:document-units="mm"
     showgrid="false"
     inkscape:zoom="0.41003744"
     inkscape:cx="-91.455064"
     inkscape:cy="268.26819"
     inkscape:window-width="1920"
     inkscape:window-height="948"
     inkscape:window-x="0"
     inkscape:window-y="25"
     inkscape:window-maximized="1"
     inkscape:current-layer="layer1" /><defs
     id="defs2" /><g
     inkscape:label="Livello 1"
     inkscape:groupmode="layer"
     id="layer1"
     transform="translate(-18.984715,-37.593739)"><g
       id="g2755"
       transform="matrix(0.87006892,0,0,0.87006892,12.892491,16.60733)"><path
         style="opacity:1;fill:#000000;fill-opacity:1;stroke-width:13.2292;stroke-linejoin:bevel;stroke-miterlimit:0"
         d="m 23.220374,143.37799 h 10.776805 l 10.562341,4.23567 h 55.76058 c 0,0 3.32419,-0.75063 3.32419,-4.23567 0,-3.48503 -3.37781,-4.07481 -3.37781,-4.07481 H 77.426093 c 0,0 -1.394016,-0.42892 -1.394016,-2.30548 0,-1.87656 2.198254,-2.14464 2.198254,-2.14464 h 30.775549 c 0,0 3.21696,-1.0187 3.21696,-4.12843 0,-3.10972 -3.37781,-4.18204 -3.37781,-4.18204 H 77.586941 c 0,0 -1.501246,-0.53616 -1.501246,-2.3591 0,-1.82295 2.412717,-2.19826 2.412717,-2.19826 h 41.069808 c 0,0 3.05611,-0.37531 3.05611,-3.86034 0,-3.48504 -3.3778,-4.3429 -3.3778,-4.3429 H 77.479708 c 0,0 -1.501246,-0.21446 -1.501246,-2.3591 0,-2.14463 3.216958,-1.98379 3.216958,-1.98379 h 29.43515 c 0,0 3.48504,-0.48254 3.48504,-4.12842 0,-3.64589 -4.18205,-4.23566 -4.18205,-4.23566 H 64.826346 c 0,0 -1.232204,-0.55079 -1.501246,-1.554867 -0.269041,-1.004078 0.857856,-2.305484 0.857856,-2.305484 l 15.413413,-8.89894 c 0,0 2.82838,-2.159162 0.885833,-5.523749 -1.942547,-3.36459 -5.736907,-1.3404 -5.736907,-1.3404 L 33.467793,105.28316 H 23.27399 Z"
         id="path358" /><path
         style="opacity:1;fill:#000000;fill-opacity:1;stroke-width:13.2292;stroke-linejoin:bevel;stroke-miterlimit:0"
         d="m 73.353899,96.861913 17.578728,0.240146 c 0,0 0.09606,-12.871857 13.496243,-13.015944 0,0 -0.76847,-3.890373 -5.619433,-3.121904 L 84.44093,89.259873 c 0,0 -1.745581,2.091039 -1.95571,2.342753 -1.003811,1.202469 -9.131321,5.259287 -9.131321,5.259287 z"
         id="path1076"
         sodipodi:nodetypes="cccccsc" /><path
         style="opacity:1;fill:#000000;fill-opacity:1;stroke-width:13.2292;stroke-linejoin:bevel;stroke-miterlimit:0"
         d="m 95.171554,96.804845 h 13.712376 c 0,0 10.82556,2.541654 6.36982,12.614125 0,0 13.27308,-1.19237 11.39037,10.38627 0,0 3.74037,0.33526 6.21854,-5.91918 2.47817,-6.25443 -5.54639,-10.32572 -5.54639,-10.32572 0,0 -1.7302,-0.79603 -0.88467,-2.83397 0,0 4.94308,-5.5718 1.12737,-10.731679 -3.81571,-5.159878 -9.62599,-3.273704 -9.62599,-3.273704 0,0 -2.7317,0.542004 -5.31164,4.682915 0,0 -1.45258,1.32249 -2.86179,-0.260162 -1.40921,-1.582652 -4.37939,-3.035223 -6.13548,-2.775061 -1.75609,0.260162 -5.485083,0.845526 -7.176135,4.205951 -1.691053,3.360426 -1.276381,4.230215 -1.276381,4.230215 z"
         id="path1200" /><path
         style="opacity:1;fill:#000000;fill-opacity:1;stroke-width:13.2292;stroke-linejoin:bevel;stroke-miterlimit:0"
         d="m 131.75862,100.98965 c 0,0 4.29268,3.0073 5.04451,6.79069 0,0 2.81328,-5.8691 -4.19567,-8.609624 -0.13434,0.71777 -0.45713,1.294194 -0.84884,1.818934 z"
         id="path1203"
         sodipodi:nodetypes="cccc" /><path
         style="opacity:1;fill:#000000;fill-opacity:1;stroke-width:13.2292;stroke-linejoin:bevel;stroke-miterlimit:0"
         d="m 106.699,147.61388 h 16.34291 c 0,0 3.79126,-0.29447 3.79126,-4.01211 0,-3.71764 -3.4968,-4.34338 -3.4968,-4.34338 h -16.49014 c 2.26006,5.49009 0.5203,6.36659 -0.14723,8.35549 z"
         id="path1205"
         sodipodi:nodetypes="ccsccc" /><path
         style="opacity:1;fill:#000000;fill-opacity:1;stroke-width:13.2292;stroke-linejoin:bevel;stroke-miterlimit:0"
         d="m 115.12811,134.915 h 16.34291 c 0,0 3.79126,-0.29447 3.79126,-4.01211 0,-3.71764 -3.4968,-4.34338 -3.4968,-4.34338 h -16.49014 c 2.26006,5.49009 0.5203,6.36659 -0.14723,8.35549 z"
         id="path1207"
         sodipodi:nodetypes="ccsccc" /><path
         style="opacity:1;fill:#000000;fill-opacity:1;stroke-width:13.2292;stroke-linejoin:bevel;stroke-miterlimit:0"
         d="m 131.98633,122.17932 h 10.52719 c 0,0 3.38637,-0.84659 3.38637,-3.57041 0,-2.72382 -1.91403,-4.71147 -3.16552,-4.71147 -1.25148,0 -5.52125,-0.0368 -5.52125,-0.0368 -0.35229,3.86963 -2.72711,6.80609 -5.22679,8.31868 z"
         id="path1209"
         sodipodi:nodetypes="ccsscc" /><circle
         style="opacity:1;fill:#000000;fill-opacity:1;stroke-width:13.2292;stroke-linejoin:bevel;stroke-miterlimit:0"
         id="path1263"
         cx="90.893181"
         cy="60.671341"
         r="4.3479538" /><circle
         style="opacity:1;fill:#000000;fill-opacity:1;stroke-width:13.2292;stroke-linejoin:bevel;stroke-miterlimit:0"
         id="path1265"
         cx="120.86062"
         cy="60.53756"
         r="4.1472793" /><circle
         style="opacity:1;fill:#000000;fill-opacity:1;stroke-width:13.2292;stroke-linejoin:bevel;stroke-miterlimit:0"
         id="path1267"
         cx="139.79094"
         cy="75.721954"
         r="6.6891599" /></g></g></svg>
