<?xml version="1.0" encoding="UTF-8" standalone="no"?>
<!-- Created with Inkscape (http://www.inkscape.org/) -->

<svg
   width="135.46666mm"
   height="135.46666mm"
   viewBox="0 0 135.46666 135.46666"
   version="1.1"
   id="svg5"
   xml:space="preserve"
   inkscape:version="1.2.1 (9c6d41e, 2022-07-14)"
   sodipodi:docname="write.svg"
   xmlns:inkscape="http://www.inkscape.org/namespaces/inkscape"
   xmlns:sodipodi="http://sodipodi.sourceforge.net/DTD/sodipodi-0.dtd"
   xmlns="http://www.w3.org/2000/svg"
   xmlns:svg="http://www.w3.org/2000/svg"><sodipodi:namedview
     id="namedview7"
     pagecolor="#505050"
     bordercolor="#ffffff"
     borderopacity="1"
     inkscape:showpageshadow="0"
     inkscape:pageopacity="0"
     inkscape:pagecheckerboard="1"
     inkscape:deskcolor="#505050"
     inkscape:document-units="mm"
     showgrid="false"
     inkscape:zoom="0.36103175"
     inkscape:cx="-184.19433"
     inkscape:cy="470.87272"
     inkscape:window-width="1920"
     inkscape:window-height="948"
     inkscape:window-x="0"
     inkscape:window-y="25"
     inkscape:window-maximized="1"
     inkscape:current-layer="layer1" /><defs
     id="defs2" /><g
     inkscape:label="Livello 1"
     inkscape:groupmode="layer"
     id="layer1"
     transform="translate(108.66615,-16.139082)"><g
       id="g3559"
       transform="matrix(0.76259713,0,0,0.76259713,-113.02405,27.106598)"><path
         style="opacity:1;fill:#000000;fill-opacity:1;stroke-width:13.2292;stroke-linejoin:bevel;stroke-miterlimit:0"
         d="M 137.93522,116.32441 V 64.877025 h -6.13083 L 102.38747,49.838777 81.477518,86.055883 h 6.709931 c 0,0 3.458829,0.839388 3.458829,4.356346 0,3.516961 -3.952946,3.633224 -3.952946,3.633224 H 54.035149 c 0,0 -8.194832,1.571379 -8.194832,9.520037 0,7.94866 7.948659,8.87292 7.948659,8.87292 h 35.214408 c 0,0 21.796846,15.16609 48.931836,3.886 z"
         id="path356" /><path
         style="opacity:1;fill:#000000;fill-opacity:1;stroke-width:13.2292;stroke-linejoin:bevel;stroke-miterlimit:0"
         d="m 56.284486,129.6297 5.228481,-9.056 H 86.41545 l 4.344035,1.93918 c 0,0 -0.369705,9.98203 -8.780497,9.98203 -8.410789,0 -9.889612,-8.78049 -9.889612,-8.78049 0,0 -1.571246,8.87292 -8.318362,8.87292 -6.747118,0 -7.486528,-2.95764 -7.486528,-2.95764 z"
         id="path3072" /><path
         style="opacity:1;fill:#000000;fill-opacity:1;stroke-width:13.2292;stroke-linejoin:bevel;stroke-miterlimit:0"
         d="m 39.55533,110.95959 -4.333961,7.50664 -3.93802,17.32082 c 0,0 -0.444355,1.64157 1.296244,2.6465 1.740598,1.00494 2.862538,0.43208 2.862538,0.43208 l 13.610562,-12.58437 3.456511,-5.98685 c 0,0 -4.428694,-0.54838 -7.831335,-3.24888 -3.40264,-2.70051 -5.122539,-6.08594 -5.122539,-6.08594 z"
         id="path3074" /><path
         style="opacity:1;fill:#000000;fill-opacity:1;stroke-width:13.2292;stroke-linejoin:bevel;stroke-miterlimit:0"
         d="M 70.396625,41.68007 37.950763,97.87795 c -0.710662,1.230902 -4.456036,4.4685 -7.803147,1.121394 -3.347111,-3.347111 -3.347111,-5.773766 -3.347111,-5.773766 0,0 0.112884,-4.072035 2.175622,-7.865711 5.250541,-9.656511 9.377333,-20.121256 16.507395,-28.591647 5.059386,-6.010464 11.939812,-10.37076 18.418948,-14.61829 2.71363,-0.967907 4.31111,-0.855564 6.494155,-0.46986 z"
         id="path3076"
         sodipodi:nodetypes="csscsscc" /><path
         style="opacity:1;fill:#000000;fill-opacity:1;stroke-width:13.2292;stroke-linejoin:bevel;stroke-miterlimit:0"
         d="m 103.37409,31.819893 -13.564999,-7.831755 5.757984,-9.677905 c 0,0 3.07444,-6.4112384 7.482765,-3.866093 4.40832,2.545145 5.68689,3.367242 5.68689,3.367242 0,0 3.61079,2.670347 1.32196,6.634715 -2.28883,3.964368 -6.6846,11.373796 -6.6846,11.373796 z"
         id="path3230" /><path
         style="opacity:1;fill:#000000;fill-opacity:1;stroke-width:13.2292;stroke-linejoin:bevel;stroke-miterlimit:0"
         d="M 99.392844,38.816273 85.859759,31.002942 54.059578,86.082468 h 17.960099 z"
         id="path3232" /><rect
         style="opacity:1;fill:#000000;fill-opacity:1;stroke-width:13.2292;stroke-linejoin:bevel;stroke-miterlimit:0"
         id="rect3234"
         width="16.325832"
         height="66.293274"
         x="145.94133"
         y="56.978081"
         ry="4.0407114" /></g></g></svg>
